<?xml version="1.0" encoding="UTF-8" standalone="yes"?>
<svg version="1.2" width="500.000000pt" height="500.000000pt" viewBox="0 0 500.000000 500.000000" preserveAspectRatio="xMidYMid meet" baseProfile="tiny-ps" xmlns="http://www.w3.org/2000/svg">
  <title>bimi-svg-tiny-12-ps</title>
  <g transform="translate(0.000000,500.000000) scale(0.100000,-0.100000)" fill="#000000" stroke="none">
    <path d="M2409 3829 c2 -54 -2 -93 -14 -128 l-16 -50 -97 -32 c-199 -66 -593&#xA;-234 -855 -366 -112 -56 -350 -187 -375 -206 -26 -20 12 -27 154 -27 l141 0&#xA;129 75 c82 48 132 84 137 98 12 33 57 77 96 93 18 8 59 14 90 14 48 0 77 9&#xA;191 61 305 138 342 147 444 109 74 -28 129 -70 171 -132 22 -32 34 -43 29 -28&#xA;-12 43 -7 153 10 200 24 65 63 119 94 131 52 20 368 98 500 124 157 30 419 65&#xA;500 66 l57 1 -40 10 c-24 6 -121 8 -240 4 -268 -7 -466 -32 -752 -96 -105 -24&#xA;-138 -28 -160 -19 -58 21 -125 73 -161 123 l-37 52 4 -77z"/>
    <path d="M4055 3796 c130 -28 226 -63 304 -110 209 -127 281 -352 185 -580&#xA;-39 -93 -39 -89 6 -108 25 -10 47 -29 61 -52 l21 -36 88 0 89 0 37 67 c58 102&#xA;85 188 91 281 23 340 -279 541 -837 558 l-155 4 110 -24z"/>
    <path d="M342 3228 c-28 -28 -11 -55 116 -180 150 -147 172 -158 332 -158 97&#xA;0 120 -8 120 -39 0 -9 -99 -115 -220 -236 -227 -228 -244 -252 -205 -285 24&#xA;-20 281 -9 325 14 19 10 119 102 222 203 103 103 192 183 199 181 8 -3 -52&#xA;-72 -149 -173 -219 -226 -218 -239 5 -233 118 3 144 7 178 25 22 12 121 103&#xA;220 202 167 168 205 199 205 169 0 -6 -72 -84 -160 -173 -215 -217 -215 -229&#xA;7 -223 117 3 144 7 178 25 37 20 428 402 448 438 5 9 6 27 3 41 l-6 24 -381 0&#xA;c-232 0 -388 4 -399 10 -16 8 -17 14 -7 40 10 25 9 33 -6 47 -15 16 -44 19&#xA;-210 23 -230 6 -223 3 -357 139 -121 122 -145 131 -320 131 -85 0 -130 -4&#xA;-138 -12z"/>
    <path d="M1676 3224 c-3 -9 -6 -23 -6 -33 0 -25 228 -255 275 -276 29 -14 72&#xA;-20 160 -23 120 -4 145 -11 145 -40 0 -8 -101 -117 -225 -242 -288 -289 -289&#xA;-294 -58 -288 111 2 146 7 178 22 24 12 110 91 219 203 165 169 206 203 206&#xA;171 0 -7 -72 -85 -160 -173 -88 -89 -160 -168 -160 -176 0 -8 6 -23 13 -33 11&#xA;-16 28 -17 152 -14 123 3 146 6 185 26 44 22 441 415 454 449 3 8 1 23 -4 34&#xA;-10 17 -23 19 -165 19 -84 0 -160 3 -169 6 -12 5 -15 15 -11 43 10 65 8 65&#xA;-212 71 -151 4 -204 9 -223 20 -14 8 -70 59 -126 112 -134 130 -152 138 -325&#xA;138 -116 0 -138 -2 -143 -16z"/>
    <path d="M3432 3228 c-28 -28 -11 -55 116 -180 150 -147 172 -158 332 -158 96&#xA;0 120 -8 120 -38 0 -8 -99 -115 -220 -238 -285 -290 -287 -298 -53 -292 128 3&#xA;141 5 183 30 25 14 123 105 218 202 149 151 202 196 202 170 0 -3 -71 -80&#xA;-157 -170 -216 -226 -216 -238 4 -232 128 3 141 5 183 30 62 37 450 428 450&#xA;454 0 40 -17 44 -173 44 -161 0 -194 8 -177 41 15 27 3 58 -27 70 -13 5 -101&#xA;9 -194 9 -207 0 -208 0 -347 137 -124 124 -147 133 -322 133 -85 0 -130 -4&#xA;-138 -12z"/>
    <path d="M3125 2821 c-30 -18 -130 -111 -247 -230 -259 -264 -260 -271 -34&#xA;-271 120 0 146 3 181 20 l42 20 187 -188 c228 -230 233 -234 400 -240 139 -5&#xA;176 4 176 42 0 20 -51 77 -217 246 -120 122 -219 230 -221 241 -7 40 14 49&#xA;117 49 134 0 166 17 309 162 61 63 112 122 112 131 0 49 14 47 -384 47 l-371&#xA;0 -50 -29z m325 -101 c0 -16 -71 -90 -86 -90 -24 0 -15 23 23 62 36 37 63 49&#xA;63 28z"/>
    <path d="M506 2669 c-316 -264 -480 -529 -463 -750 24 -312 308 -482 842 -503&#xA;l150 -6 -100 24 c-282 67 -424 157 -498 313 -28 61 -31 77 -32 163 0 80 5 108&#xA;29 178 l29 82 -20 23 c-45 49 -55 108 -29 171 7 18 81 102 164 187 l150 155&#xA;-64 20 -65 20 -93 -77z"/>
    <path d="M3049 1911 c-97 -48 -237 -113 -312 -145 l-135 -58 -47 21 c-63 28&#xA;-123 77 -154 126 l-26 41 0 -90 c0 -66 -5 -104 -19 -139 -19 -47 -19 -47 -100&#xA;-72 -315 -97 -723 -175 -1031 -198 -23 -1 1 -6 59 -11 184 -16 581 21 854 78&#xA;40 9 106 16 145 16 117 -1 226 -56 285 -145 l28 -42 0 86 c-1 76 3 94 30 152&#xA;l32 67 68 22 c160 52 608 240 624 261 7 9 -99 119 -113 118 -7 0 -91 -40 -188&#xA;-88z"/>
  </g>
</svg>