<?xml version="1.0" encoding="UTF-8" standalone="yes"?>
<svg version="1.2" width="500.000000pt" height="500.000000pt" viewBox="0 0 500.000000 500.000000" preserveAspectRatio="xMidYMid meet" baseProfile="tiny-ps" xmlns="http://www.w3.org/2000/svg">
  <title>bimi-svg-tiny-12-ps</title>
  <g transform="translate(0.000000,500.000000) scale(0.100000,-0.100000)" fill="#000000" stroke="none">
    <path d="M2547 3178 c3 -14 0 -43 -6 -66 -10 -37 -16 -42 -64 -58 -152 -50&#xA;-432 -177 -607 -277 l-75 -42 88 -3 c86 -3 89 -2 150 34 34 21 76 53 92 71 24&#xA;27 41 36 85 43 30 5 101 29 158 54 142 64 202 60 269 -18 l33 -36 -6 28 c-8&#xA;38 12 106 39 136 25 29 190 74 367 100 233 35 227 33 129 35 -118 1 -270 -15&#xA;-416 -45 -137 -28 -141 -27 -204 33 -34 33 -36 33 -32 11z"/>
    <path d="M3463 3144 c167 -40 267 -138 267 -262 0 -18 -9 -60 -21 -95 -14 -42&#xA;-17 -63 -9 -65 6 -2 21 -15 34 -29 19 -20 30 -24 72 -21 49 3 49 3 78 62 77&#xA;153 25 303 -130 372 -65 29 -203 54 -288 53 l-61 -1 58 -14z"/>
    <path d="M1427 2843 c-17 -17 -2 -43 56 -100 78 -77 91 -83 172 -83 101 0 98&#xA;-12 -44 -154 -66 -67 -121 -129 -121 -139 0 -15 11 -17 92 -17 l91 0 113 112&#xA;c63 61 117 109 120 105 4 -4 -35 -49 -86 -101 -51 -52 -89 -99 -85 -105 9 -16&#xA;161 -14 193 3 15 8 69 58 120 111 51 54 96 94 99 91 4 -4 -32 -46 -80 -94 -48&#xA;-48 -87 -95 -87 -105 0 -15 11 -17 92 -17 l91 0 131 129 c169 168 174 161&#xA;-105 161 l-208 0 -3 28 -3 27 -95 2 c-52 2 -106 5 -119 9 -13 3 -51 32 -85 64&#xA;-34 32 -74 64 -89 69 -31 12 -150 15 -160 4z"/>
    <path d="M2143 2834 c-4 -11 18 -40 71 -92 l76 -77 79 -3 c60 -3 81 -8 86 -19&#xA;4 -11 -35 -56 -121 -144 -71 -71 -123 -132 -120 -138 9 -15 161 -14 189 0 12&#xA;6 68 57 125 112 56 56 102 98 102 92 0 -5 -38 -48 -85 -96 -47 -47 -85 -94&#xA;-85 -103 0 -14 13 -16 89 -16 82 0 92 2 120 26 l31 26 -2 -24 c-3 -22 -1 -23&#xA;85 -26 58 -2 94 1 103 9 12 10 34 -7 122 -99 59 -61 119 -113 132 -117 42 -10&#xA;175 -1 175 12 0 6 -53 68 -118 137 -77 82 -117 132 -113 141 4 11 21 15 61 15&#xA;70 0 95 13 168 88 92 93 88 96 -118 100 -249 4 -243 6 -350 -96 l-90 -87 74&#xA;77 c94 98 91 108 -40 108 l-89 0 6 25 c7 30 -4 33 -138 37 l-96 3 -65 62 c-77&#xA;74 -97 83 -188 83 -55 0 -71 -3 -76 -16z m967 -272 c0 -14 -46 -53 -53 -45 -4&#xA;3 3 17 15 30 22 23 38 30 38 15z m-370 -126 c0 -2 -8 -10 -17 -17 -16 -13 -17&#xA;-12 -4 4 13 16 21 21 21 13z"/>
    <path d="M3107 2843 c-17 -17 -2 -43 56 -100 78 -77 91 -83 172 -83 101 0 98&#xA;-12 -44 -154 -66 -67 -121 -129 -121 -139 0 -15 11 -17 92 -17 l91 0 113 112&#xA;c63 61 116 109 120 106 3 -3 -34 -47 -83 -98 -48 -50 -88 -96 -88 -103 0 -19&#xA;157 -21 194 -3 39 21 236 231 236 253 0 16 -12 18 -92 21 -92 3 -92 3 -95 30&#xA;l-3 27 -95 2 c-52 2 -106 5 -119 9 -13 3 -51 32 -85 64 -34 32 -74 64 -89 69&#xA;-31 12 -150 15 -160 4z"/>
    <path d="M1480 2510 c-186 -164 -260 -336 -201 -465 24 -55 98 -117 168 -144&#xA;65 -25 222 -51 298 -50 l50 1 -65 17 c-107 29 -166 60 -214 111 -41 44 -66 98&#xA;-66 144 0 11 7 46 16 78 15 53 15 60 0 92 -10 21 -14 45 -10 60 3 14 44 66 90&#xA;114 l83 89 -35 11 c-35 10 -37 9 -114 -58z"/>
    <path d="M2870 2113 c-152 -72 -216 -96 -244 -89 -12 3 -39 22 -59 41 l-37 36&#xA;0 -36 c0 -20 -6 -50 -14 -68 -13 -31 -20 -35 -127 -65 -137 -38 -238 -59 -379&#xA;-77 l-105 -13 115 -1 c72 -1 165 7 250 20 259 40 281 38 343 -30 l33 -37 1 46&#xA;c1 55 25 107 56 120 12 5 65 26 117 46 52 20 128 52 169 71 l74 33 -28 30&#xA;c-16 17 -34 30 -39 29 -6 0 -63 -25 -126 -56z"/>
  </g>
</svg>